<svg xmlns="http://www.w3.org/2000/svg" viewBox="0 0 819 819"><defs><style>.cls-1{isolation:isolate;}.cls-2{fill:#748e99;mix-blend-mode:saturation;}.cls-3,.cls-4{stroke:#000;}.cls-3,.cls-4,.cls-5{stroke-miterlimit:10;}.cls-4,.cls-5{fill:#fff;}.cls-5{stroke:#333;stroke-width:6px;}</style></defs><g class="cls-1"><g id="Camada_1" data-name="Camada 1"><path class="cls-2" d="M58.68,0H761a58,58,0,0,1,58,58V760.32A58.68,58.68,0,0,1,760.32,819H58.68A58.68,58.68,0,0,1,0,760.32V58.68A58.68,58.68,0,0,1,58.68,0Z"/><path class="cls-3" d="M431.32,889.91h-62V192.13h62Z" transform="translate(-130.5 -130.5)"/><path class="cls-4" d="M790.69,578.63" transform="translate(-130.5 -130.5)"/><path d="M752.7,246.78H589.87v265H739.76v55.76H589.87V890.09h-62V191.91H752.7Z" transform="translate(-130.5 -130.5)"/><path class="cls-5" d="M669.72,821.45q0,20.26-11.48,33.09t-29.92,12.82H480q-18.44,0-30.29-12.82t-11.86-33.09V657.27h52.32V816.49h127.2V662.23L454.83,446.35Q437.9,424,437.89,397.14V266q0-20.25,11.86-33.08T480,220.14H628.32q18.43,0,29.92,12.82T669.72,266V416.58H617.41V271H490.21V407.48L653.54,623.36a78.5,78.5,0,0,1,16.18,48.38Z" transform="translate(-130.5 -130.5)"/><polygon points="397.34 682.13 459.37 682.15 459.36 742.13 397.36 742.09 397.34 682.13"/></g></g></svg>
